<?xml version="1.0" encoding="UTF-8" standalone="no"?>
<svg
   width="256"
   height="256"
   viewBox="0 0 256 256"
   version="1.1"
   id="svg12"
   sodipodi:docname="icon.svg"
   inkscape:export-filename="../f2cb2762/icon.png"
   inkscape:export-xdpi="96"
   inkscape:export-ydpi="96"
   inkscape:version="1.4.2 (2aeb623e1d, 2025-05-12)"
   xmlns:inkscape="http://www.inkscape.org/namespaces/inkscape"
   xmlns:sodipodi="http://sodipodi.sourceforge.net/DTD/sodipodi-0.dtd"
   xmlns="http://www.w3.org/2000/svg"
   xmlns:svg="http://www.w3.org/2000/svg">
  <sodipodi:namedview
     id="namedview12"
     pagecolor="#ffffff"
     bordercolor="#000000"
     borderopacity="0.25"
     inkscape:showpageshadow="2"
     inkscape:pageopacity="0.0"
     inkscape:pagecheckerboard="0"
     inkscape:deskcolor="#d1d1d1"
     showguides="true"
     inkscape:zoom="1.778767"
     inkscape:cx="139.42242"
     inkscape:cy="72.803238"
     inkscape:window-width="1854"
     inkscape:window-height="1011"
     inkscape:window-x="0"
     inkscape:window-y="0"
     inkscape:window-maximized="1"
     inkscape:current-layer="svg12">
    <sodipodi:guide
       position="128,256"
       orientation="-1,0"
       id="guide14"
       inkscape:locked="false"
       inkscape:label=""
       inkscape:color="rgb(0,134,229)" />
    <sodipodi:guide
       position="0,128"
       orientation="0,1"
       id="guide15"
       inkscape:locked="false"
       inkscape:label=""
       inkscape:color="rgb(0,134,229)" />
  </sodipodi:namedview>
  <!-- Speech Bubble (rounded rectangle) -->
  <defs
     id="defs2">
    <linearGradient
       id="bubbleGradient"
       x1="0%"
       y1="0%"
       x2="0%"
       y2="100%">
      <stop
         offset="0%"
         style="stop-color:#0090FF;stop-opacity:1"
         id="stop1" />
      <stop
         offset="100%"
         style="stop-color:#0070DD;stop-opacity:1"
         id="stop2" />
    </linearGradient>
  </defs>
  <!-- Main bubble body -->
  <!-- Speech bubble tail -->
  <!-- Bell icon -->
  <!-- Gear/Settings icon -->
  <title
     id="title1">message</title>
  <title
     id="title1-3">message-cog-outline</title>
  <path
     d="M 230.63836,0.7322541 H 26.161146 c -14.057809,0 -25.55965161,11.5018429 -25.55965161,25.5596509 V 256.32877 L 51.720803,205.20947 H 230.63836 c 14.05781,0 25.55965,-11.50185 25.55965,-25.55966 V 26.291905 c 0,-14.057808 -11.50184,-25.5596509 -25.55965,-25.5596509 m 0,178.9175559 H 41.496937 L 26.161146,194.9856 V 26.291905 H 230.63836 V 179.64981"
     id="path1-6"
     style="stroke-width:12.7798;fill:#666666"
     sodipodi:nodetypes="cssccsssccccccc" />
  <title
     id="title1-7">bell-cog</title>
  <path
     d="m 190.08747,142.58048 c 0.54053,0.37837 0.64864,1.13511 0.32432,1.7297 l -5.4053,9.35116 c -0.32432,0.70269 -1.027,0.70269 -1.62159,0.70269 l -6.75662,-2.86481 c -1.51348,1.08106 -2.86481,1.99996 -4.54045,2.70265 l -1.02701,7.135 c -0.1081,0.64863 -0.64863,1.13511 -1.35132,1.13511 h -10.8106 c -0.64863,0 -1.24322,-0.48648 -1.35132,-1.13511 l -0.97296,-7.135 c -1.72969,-0.70269 -3.08102,-1.62159 -4.5945,-2.70265 l -6.59446,2.86481 c -0.70269,0 -1.45943,0 -1.78375,-0.70269 l -5.4053,-9.35116 c -0.32432,-0.59459 -0.16216,-1.35133 0.32432,-1.7297 l 5.72961,-4.43234 c -0.1081,-0.9189 -0.21621,-1.78375 -0.21621,-2.70265 0,-0.9189 0.10811,-1.78375 0.21621,-2.70265 l -5.72961,-4.43235 c -0.48648,-0.37837 -0.64864,-0.97295 -0.32432,-1.72969 l 5.4053,-9.29711 c 0.32432,-0.59459 1.08106,-0.75675 1.78375,-0.59459 l 6.59446,2.54049 c 1.51348,-0.9189 2.86481,-1.8378 4.5945,-2.48643 l 0.97296,-7.18905 c 0.1081,-0.64864 0.70269,-1.13511 1.35132,-1.13511 h 10.8106 c 0.70269,0 1.24322,0.48647 1.35132,1.13511 l 1.02701,7.18905 c 1.67564,0.64863 3.02697,1.56753 4.54045,2.48643 l 6.75662,-2.54049 c 0.59459,-0.16216 1.29727,0 1.62159,0.59459 l 5.4053,9.29711 c 0.32432,0.75674 0.21621,1.35132 -0.32432,1.72969 l -5.67556,4.43235 c 0.10811,0.9189 0.16216,1.8378 0.16216,2.70265 0,0.86485 -0.0541,1.78375 -0.16216,2.70265 l 5.67556,4.43234 m -16.324,-7.13499 c 0,-5.24314 -4.21613,-9.45927 -9.45927,-9.45927 -5.24314,0 -9.45927,4.21613 -9.45927,9.45927 0,5.24314 4.27018,9.45927 9.45927,9.45927 5.18909,0 9.45927,-4.21613 9.45927,-9.45927 z"
     id="path1"
     style="stroke-width:5.4053;fill:#000080"
     sodipodi:nodetypes="cccccccssccccccccsccccccccssccccccccsccsssss" />
  <path
     d="m 164.3042,97.6084 c -20.9185,0 -37.83709,16.91858 -37.83709,37.83709 0,1.8378 0.16216,3.62155 0.43243,5.4053 H 77.819427 v -5.4053 l 10.810597,-10.8106 V 92.203102 c 0,-16.756425 10.972756,-31.512889 27.026486,-36.269552 v -1.567536 c 0,-5.945829 4.86477,-10.810597 10.8106,-10.810597 5.94583,0 10.8106,4.864768 10.8106,10.810597 v 1.567536 c 16.05373,4.756663 27.02649,19.513127 27.02649,36.269552 V 97.6084 m -48.64769,48.64768 c 0,5.99989 4.86477,10.8106 10.8106,10.8106 2.10807,0 4.05398,-0.64863 5.72962,-1.67564 -1.7297,-2.81076 -3.02697,-5.89178 -4.10803,-9.13496 h -12.43218"
     id="path15"
     style="stroke-width:5.4053;fill:#ffcc00;fill-opacity:1"
     sodipodi:nodetypes="csccccscssscsccsccc" />
</svg>
